<svg width="120" height="120" viewBox="0 0 120 120" fill="none" xmlns="http://www.w3.org/2000/svg">
  <!-- O and R Monogram Logo -->
  <path d="M30 20 C30 10, 40 10, 50 10 C60 10, 70 10, 70 20 C70 30, 70 40, 70 50 C70 60, 70 70, 70 80 C70 85, 65 90, 60 90 C55 90, 50 85, 50 80 L50 50 C50 45, 45 40, 40 40 C35 40, 30 45, 30 50 C30 55, 30 60, 30 65 C30 70, 30 75, 30 80 C30 90, 40 100, 50 100 C60 100, 70 90, 70 80" 
        stroke="#1e3a8a" 
        stroke-width="8" 
        stroke-linecap="round" 
        stroke-linejoin="round" 
        fill="none"/>
  <!-- R vertical stroke and leg -->
  <path d="M70 20 L70 80 M70 50 C75 50, 80 55, 80 60 C80 65, 75 70, 70 70 M70 70 L85 100" 
        stroke="#1e3a8a" 
        stroke-width="8" 
        stroke-linecap="round" 
        stroke-linejoin="round" 
        fill="none"/>
</svg>

